<mxfile host="app.diagrams.net" agent="Mozilla/5.0 (Windows NT 10.0; Win64; x64) AppleWebKit/537.36 (KHTML, like Gecko) Chrome/131.0.0.0 Safari/537.36" version="24.8.6">
  <diagram name="Page-1" id="eXEJ7AQ4ad8nRnjGjyOb">
    <mxGraphModel dx="1050" dy="530" grid="1" gridSize="10" guides="1" tooltips="1" connect="1" arrows="1" fold="1" page="1" pageScale="1" pageWidth="850" pageHeight="1100" math="0" shadow="0">
      <root>
        <mxCell id="0" />
        <mxCell id="1" parent="0" />
        <mxCell id="vskYOqWkcnwVmKQwBKcq-1" value="" style="verticalLabelPosition=bottom;html=1;verticalAlign=top;align=center;strokeColor=none;fillColor=#00BEF2;shape=mxgraph.azure.user;" parent="1" vertex="1">
          <mxGeometry x="50" y="260" width="40" height="50" as="geometry" />
        </mxCell>
        <mxCell id="vskYOqWkcnwVmKQwBKcq-3" value="" style="sketch=0;points=[[0,0,0],[0.25,0,0],[0.5,0,0],[0.75,0,0],[1,0,0],[0,1,0],[0.25,1,0],[0.5,1,0],[0.75,1,0],[1,1,0],[0,0.25,0],[0,0.5,0],[0,0.75,0],[1,0.25,0],[1,0.5,0],[1,0.75,0]];outlineConnect=0;fontColor=#232F3E;fillColor=#8C4FFF;strokeColor=#ffffff;dashed=0;verticalLabelPosition=bottom;verticalAlign=top;align=center;html=1;fontSize=12;fontStyle=0;aspect=fixed;shape=mxgraph.aws4.resourceIcon;resIcon=mxgraph.aws4.api_gateway;" parent="1" vertex="1">
          <mxGeometry x="195" y="260" width="70" height="70" as="geometry" />
        </mxCell>
        <mxCell id="vskYOqWkcnwVmKQwBKcq-4" value="User" style="text;html=1;align=center;verticalAlign=middle;whiteSpace=wrap;rounded=0;" parent="1" vertex="1">
          <mxGeometry x="43.75" y="320" width="60" height="30" as="geometry" />
        </mxCell>
        <mxCell id="vskYOqWkcnwVmKQwBKcq-5" value="API Gateway" style="text;html=1;align=center;verticalAlign=middle;whiteSpace=wrap;rounded=0;" parent="1" vertex="1">
          <mxGeometry x="200" y="340" width="60" height="30" as="geometry" />
        </mxCell>
        <mxCell id="vskYOqWkcnwVmKQwBKcq-6" value="" style="endArrow=classic;html=1;rounded=0;" parent="1" edge="1">
          <mxGeometry width="50" height="50" relative="1" as="geometry">
            <mxPoint x="106" y="294" as="sourcePoint" />
            <mxPoint x="186" y="294" as="targetPoint" />
            <Array as="points">
              <mxPoint x="146" y="294" />
            </Array>
          </mxGeometry>
        </mxCell>
        <mxCell id="vskYOqWkcnwVmKQwBKcq-8" value="Trip Management Service" style="rounded=0;whiteSpace=wrap;html=1;fontStyle=1" parent="1" vertex="1">
          <mxGeometry x="340" y="257" width="120" height="50" as="geometry" />
        </mxCell>
        <mxCell id="vskYOqWkcnwVmKQwBKcq-9" value="Transport Management Service" style="rounded=0;whiteSpace=wrap;html=1;fontStyle=1" parent="1" vertex="1">
          <mxGeometry x="340" y="330" width="120" height="50" as="geometry" />
        </mxCell>
        <mxCell id="vskYOqWkcnwVmKQwBKcq-10" value="Real-Time Tracking&lt;div&gt;Service&lt;/div&gt;&lt;div&gt;&amp;nbsp;&lt;/div&gt;" style="rounded=0;whiteSpace=wrap;html=1;fontStyle=1" parent="1" vertex="1">
          <mxGeometry x="340" y="458" width="120" height="50" as="geometry" />
        </mxCell>
        <mxCell id="vskYOqWkcnwVmKQwBKcq-11" value="User Management Service&lt;div&gt;&lt;br&gt;&lt;/div&gt;" style="rounded=0;whiteSpace=wrap;html=1;align=center;verticalAlign=top;fontStyle=1" parent="1" vertex="1">
          <mxGeometry x="250" y="160" width="110" height="40" as="geometry" />
        </mxCell>
        <mxCell id="vskYOqWkcnwVmKQwBKcq-12" value="&lt;div&gt;Logging and Monitoring Serivce&lt;/div&gt;&lt;div&gt;&lt;br&gt;&lt;/div&gt;" style="rounded=0;whiteSpace=wrap;html=1;fontStyle=1" parent="1" vertex="1">
          <mxGeometry x="700" y="305" width="120" height="60" as="geometry" />
        </mxCell>
        <mxCell id="vskYOqWkcnwVmKQwBKcq-13" value="Notification Service" style="rounded=0;whiteSpace=wrap;html=1;fontStyle=1" parent="1" vertex="1">
          <mxGeometry x="700" y="417" width="120" height="60" as="geometry" />
        </mxCell>
        <mxCell id="vskYOqWkcnwVmKQwBKcq-15" style="edgeStyle=orthogonalEdgeStyle;rounded=0;orthogonalLoop=1;jettySize=auto;html=1;exitX=1;exitY=0.5;exitDx=0;exitDy=0;exitPerimeter=0;" parent="1" source="vskYOqWkcnwVmKQwBKcq-3" edge="1">
          <mxGeometry relative="1" as="geometry">
            <mxPoint x="300" y="295" as="targetPoint" />
          </mxGeometry>
        </mxCell>
        <mxCell id="vskYOqWkcnwVmKQwBKcq-16" value="DB" style="strokeWidth=2;html=1;shape=mxgraph.flowchart.database;whiteSpace=wrap;verticalAlign=bottom;fontStyle=1" parent="1" vertex="1">
          <mxGeometry x="415" y="190" width="30" height="35" as="geometry" />
        </mxCell>
        <mxCell id="vskYOqWkcnwVmKQwBKcq-17" value="DB" style="strokeWidth=2;html=1;shape=mxgraph.flowchart.database;whiteSpace=wrap;verticalAlign=bottom;fontStyle=1" parent="1" vertex="1">
          <mxGeometry x="320" y="90" width="30" height="36" as="geometry" />
        </mxCell>
        <mxCell id="vskYOqWkcnwVmKQwBKcq-18" value="" style="image;sketch=0;aspect=fixed;html=1;points=[];align=center;fontSize=12;image=img/lib/mscae/Cache_Redis_Product.svg;" parent="1" vertex="1">
          <mxGeometry x="250" y="94" width="38.1" height="32" as="geometry" />
        </mxCell>
        <mxCell id="vskYOqWkcnwVmKQwBKcq-24" value="" style="sketch=0;points=[[0,0,0],[0.25,0,0],[0.5,0,0],[0.75,0,0],[1,0,0],[0,1,0],[0.25,1,0],[0.5,1,0],[0.75,1,0],[1,1,0],[0,0.25,0],[0,0.5,0],[0,0.75,0],[1,0.25,0],[1,0.5,0],[1,0.75,0]];outlineConnect=0;fontColor=#232F3E;fillColor=#8C4FFF;strokeColor=#ffffff;dashed=0;verticalLabelPosition=bottom;verticalAlign=top;align=center;html=1;fontSize=12;fontStyle=0;aspect=fixed;shape=mxgraph.aws4.resourceIcon;resIcon=mxgraph.aws4.managed_streaming_for_kafka;" parent="1" vertex="1">
          <mxGeometry x="560" y="320" width="60" height="60" as="geometry" />
        </mxCell>
        <mxCell id="vskYOqWkcnwVmKQwBKcq-28" value="" style="endArrow=none;dashed=1;html=1;dashPattern=1 3;strokeWidth=2;rounded=0;entryX=0.5;entryY=1;entryDx=0;entryDy=0;entryPerimeter=0;exitX=0.75;exitY=0;exitDx=0;exitDy=0;" parent="1" source="vskYOqWkcnwVmKQwBKcq-8" target="vskYOqWkcnwVmKQwBKcq-16" edge="1">
          <mxGeometry width="50" height="50" relative="1" as="geometry">
            <mxPoint x="455" y="270" as="sourcePoint" />
            <mxPoint x="450" y="250" as="targetPoint" />
          </mxGeometry>
        </mxCell>
        <mxCell id="vskYOqWkcnwVmKQwBKcq-30" value="" style="endArrow=none;dashed=1;html=1;dashPattern=1 3;strokeWidth=2;rounded=0;entryX=0.577;entryY=0.887;entryDx=0;entryDy=0;entryPerimeter=0;exitX=0.196;exitY=-0.09;exitDx=0;exitDy=0;exitPerimeter=0;" parent="1" source="vskYOqWkcnwVmKQwBKcq-11" target="vskYOqWkcnwVmKQwBKcq-18" edge="1">
          <mxGeometry width="50" height="50" relative="1" as="geometry">
            <mxPoint x="280" y="160" as="sourcePoint" />
            <mxPoint x="450" y="250" as="targetPoint" />
          </mxGeometry>
        </mxCell>
        <mxCell id="vskYOqWkcnwVmKQwBKcq-31" value="" style="endArrow=none;dashed=1;html=1;dashPattern=1 3;strokeWidth=2;rounded=0;entryX=0.5;entryY=1;entryDx=0;entryDy=0;entryPerimeter=0;exitX=0.75;exitY=0;exitDx=0;exitDy=0;" parent="1" source="vskYOqWkcnwVmKQwBKcq-11" target="vskYOqWkcnwVmKQwBKcq-17" edge="1">
          <mxGeometry width="50" height="50" relative="1" as="geometry">
            <mxPoint x="440" y="150" as="sourcePoint" />
            <mxPoint x="450" y="250" as="targetPoint" />
          </mxGeometry>
        </mxCell>
        <mxCell id="vskYOqWkcnwVmKQwBKcq-38" value="DB" style="strokeWidth=2;html=1;shape=mxgraph.flowchart.database;whiteSpace=wrap;verticalAlign=bottom;fontStyle=1" parent="1" vertex="1">
          <mxGeometry x="737" y="220" width="30" height="40" as="geometry" />
        </mxCell>
        <mxCell id="vskYOqWkcnwVmKQwBKcq-40" style="edgeStyle=orthogonalEdgeStyle;rounded=0;orthogonalLoop=1;jettySize=auto;html=1;exitX=0.5;exitY=0;exitDx=0;exitDy=0;exitPerimeter=0;entryX=0.5;entryY=0.25;entryDx=0;entryDy=0;entryPerimeter=0;" parent="1" source="vskYOqWkcnwVmKQwBKcq-38" target="vskYOqWkcnwVmKQwBKcq-38" edge="1">
          <mxGeometry relative="1" as="geometry" />
        </mxCell>
        <mxCell id="vskYOqWkcnwVmKQwBKcq-43" value="" style="image;sketch=0;aspect=fixed;html=1;points=[];align=center;fontSize=12;image=img/lib/mscae/Cache_Redis_Product.svg;" parent="1" vertex="1">
          <mxGeometry x="360" y="550" width="38.1" height="32" as="geometry" />
        </mxCell>
        <mxCell id="vskYOqWkcnwVmKQwBKcq-45" value="" style="endArrow=none;dashed=1;html=1;dashPattern=1 3;strokeWidth=2;rounded=0;" parent="1" edge="1">
          <mxGeometry width="50" height="50" relative="1" as="geometry">
            <mxPoint x="436" y="514" as="sourcePoint" />
            <mxPoint x="436" y="544" as="targetPoint" />
          </mxGeometry>
        </mxCell>
        <mxCell id="vskYOqWkcnwVmKQwBKcq-47" value="DB" style="strokeWidth=2;html=1;shape=mxgraph.flowchart.database;whiteSpace=wrap;verticalAlign=bottom;fontStyle=1" parent="1" vertex="1">
          <mxGeometry x="425" y="547" width="30" height="35" as="geometry" />
        </mxCell>
        <mxCell id="vskYOqWkcnwVmKQwBKcq-49" value="" style="endArrow=none;dashed=1;html=1;dashPattern=1 3;strokeWidth=2;rounded=0;entryX=0.691;entryY=1.04;entryDx=0;entryDy=0;entryPerimeter=0;" parent="1" edge="1">
          <mxGeometry width="50" height="50" relative="1" as="geometry">
            <mxPoint x="377" y="545" as="sourcePoint" />
            <mxPoint x="377" y="517" as="targetPoint" />
          </mxGeometry>
        </mxCell>
        <mxCell id="vskYOqWkcnwVmKQwBKcq-53" value="" style="endArrow=none;html=1;rounded=0;" parent="1" edge="1">
          <mxGeometry width="50" height="50" relative="1" as="geometry">
            <mxPoint x="300" y="520" as="sourcePoint" />
            <mxPoint x="300" y="200" as="targetPoint" />
          </mxGeometry>
        </mxCell>
        <mxCell id="vskYOqWkcnwVmKQwBKcq-55" value="" style="endArrow=classic;html=1;rounded=0;entryX=0;entryY=0.25;entryDx=0;entryDy=0;" parent="1" target="vskYOqWkcnwVmKQwBKcq-8" edge="1">
          <mxGeometry width="50" height="50" relative="1" as="geometry">
            <mxPoint x="300" y="270" as="sourcePoint" />
            <mxPoint x="450" y="250" as="targetPoint" />
          </mxGeometry>
        </mxCell>
        <mxCell id="vskYOqWkcnwVmKQwBKcq-57" value="" style="endArrow=classic;html=1;rounded=0;" parent="1" edge="1">
          <mxGeometry width="50" height="50" relative="1" as="geometry">
            <mxPoint x="300" y="360" as="sourcePoint" />
            <mxPoint x="336" y="360" as="targetPoint" />
          </mxGeometry>
        </mxCell>
        <mxCell id="vskYOqWkcnwVmKQwBKcq-58" value="Log" style="endArrow=classic;html=1;rounded=0;exitX=1;exitY=0.25;exitDx=0;exitDy=0;" parent="1" source="vskYOqWkcnwVmKQwBKcq-8" edge="1">
          <mxGeometry relative="1" as="geometry">
            <mxPoint x="370" y="380" as="sourcePoint" />
            <mxPoint x="610" y="320" as="targetPoint" />
            <Array as="points">
              <mxPoint x="610" y="270" />
            </Array>
          </mxGeometry>
        </mxCell>
        <mxCell id="vskYOqWkcnwVmKQwBKcq-60" value="" style="endArrow=classic;html=1;rounded=0;exitX=1;exitY=0.25;exitDx=0;exitDy=0;exitPerimeter=0;entryX=0;entryY=0.5;entryDx=0;entryDy=0;" parent="1" source="vskYOqWkcnwVmKQwBKcq-24" target="vskYOqWkcnwVmKQwBKcq-12" edge="1">
          <mxGeometry relative="1" as="geometry">
            <mxPoint x="370" y="380" as="sourcePoint" />
            <mxPoint x="470" y="380" as="targetPoint" />
          </mxGeometry>
        </mxCell>
        <mxCell id="vskYOqWkcnwVmKQwBKcq-61" value="Label" style="edgeLabel;resizable=0;html=1;;align=center;verticalAlign=middle;" parent="vskYOqWkcnwVmKQwBKcq-60" connectable="0" vertex="1">
          <mxGeometry relative="1" as="geometry" />
        </mxCell>
        <mxCell id="vskYOqWkcnwVmKQwBKcq-62" value="&lt;br&gt;&lt;div&gt;&lt;br&gt;&lt;/div&gt;" style="edgeLabel;html=1;align=center;verticalAlign=middle;resizable=0;points=[];" parent="vskYOqWkcnwVmKQwBKcq-60" vertex="1" connectable="0">
          <mxGeometry x="0.195" y="-2" relative="1" as="geometry">
            <mxPoint as="offset" />
          </mxGeometry>
        </mxCell>
        <mxCell id="t34tT2cTHQwuIw1zyMxt-5" value="Log" style="edgeLabel;html=1;align=center;verticalAlign=middle;resizable=0;points=[];" parent="vskYOqWkcnwVmKQwBKcq-60" vertex="1" connectable="0">
          <mxGeometry x="-0.005" y="4" relative="1" as="geometry">
            <mxPoint as="offset" />
          </mxGeometry>
        </mxCell>
        <mxCell id="vskYOqWkcnwVmKQwBKcq-63" value="" style="endArrow=none;dashed=1;html=1;dashPattern=1 3;strokeWidth=2;rounded=0;entryX=0.5;entryY=1;entryDx=0;entryDy=0;entryPerimeter=0;exitX=0.43;exitY=0.03;exitDx=0;exitDy=0;exitPerimeter=0;" parent="1" source="vskYOqWkcnwVmKQwBKcq-12" target="vskYOqWkcnwVmKQwBKcq-38" edge="1">
          <mxGeometry width="50" height="50" relative="1" as="geometry">
            <mxPoint x="400" y="400" as="sourcePoint" />
            <mxPoint x="450" y="350" as="targetPoint" />
          </mxGeometry>
        </mxCell>
        <mxCell id="vskYOqWkcnwVmKQwBKcq-66" value="" style="endArrow=classic;html=1;rounded=0;" parent="1" edge="1">
          <mxGeometry relative="1" as="geometry">
            <mxPoint x="460" y="360.5" as="sourcePoint" />
            <mxPoint x="560" y="360.5" as="targetPoint" />
          </mxGeometry>
        </mxCell>
        <mxCell id="vskYOqWkcnwVmKQwBKcq-67" value="Label" style="edgeLabel;resizable=0;html=1;;align=center;verticalAlign=middle;" parent="vskYOqWkcnwVmKQwBKcq-66" connectable="0" vertex="1">
          <mxGeometry relative="1" as="geometry" />
        </mxCell>
        <mxCell id="vskYOqWkcnwVmKQwBKcq-68" value="Send Log&amp;nbsp;" style="edgeLabel;html=1;align=center;verticalAlign=middle;resizable=0;points=[];" parent="vskYOqWkcnwVmKQwBKcq-66" vertex="1" connectable="0">
          <mxGeometry x="0.016" y="-1" relative="1" as="geometry">
            <mxPoint as="offset" />
          </mxGeometry>
        </mxCell>
        <mxCell id="vskYOqWkcnwVmKQwBKcq-69" value="Send Log&lt;div&gt;&lt;br&gt;&lt;/div&gt;" style="endArrow=classic;html=1;rounded=0;entryX=0.75;entryY=1;entryDx=0;entryDy=0;entryPerimeter=0;" parent="1" target="vskYOqWkcnwVmKQwBKcq-24" edge="1">
          <mxGeometry relative="1" as="geometry">
            <mxPoint x="462" y="500" as="sourcePoint" />
            <mxPoint x="604" y="417" as="targetPoint" />
            <Array as="points">
              <mxPoint x="604" y="500" />
            </Array>
          </mxGeometry>
        </mxCell>
        <mxCell id="t34tT2cTHQwuIw1zyMxt-1" value="Trip Status&amp;nbsp;&lt;div&gt;&lt;br&gt;&lt;/div&gt;" style="endArrow=classic;html=1;rounded=0;entryX=0.5;entryY=0;entryDx=0;entryDy=0;entryPerimeter=0;" parent="1" edge="1">
          <mxGeometry relative="1" as="geometry">
            <mxPoint x="460" y="291" as="sourcePoint" />
            <mxPoint x="588" y="320" as="targetPoint" />
            <Array as="points">
              <mxPoint x="588" y="291" />
            </Array>
          </mxGeometry>
        </mxCell>
        <mxCell id="t34tT2cTHQwuIw1zyMxt-3" value="" style="endArrow=classic;html=1;rounded=0;" parent="1" edge="1">
          <mxGeometry relative="1" as="geometry">
            <mxPoint x="619" y="377" as="sourcePoint" />
            <mxPoint x="710" y="413" as="targetPoint" />
            <Array as="points">
              <mxPoint x="710" y="377" />
            </Array>
          </mxGeometry>
        </mxCell>
        <mxCell id="t34tT2cTHQwuIw1zyMxt-4" value="&lt;div&gt;Trip Status&lt;/div&gt;" style="edgeLabel;resizable=0;html=1;;align=center;verticalAlign=middle;" parent="t34tT2cTHQwuIw1zyMxt-3" connectable="0" vertex="1">
          <mxGeometry relative="1" as="geometry" />
        </mxCell>
        <mxCell id="t34tT2cTHQwuIw1zyMxt-6" value="DB" style="strokeWidth=2;html=1;shape=mxgraph.flowchart.database;whiteSpace=wrap;verticalAlign=bottom;fontStyle=1" parent="1" vertex="1">
          <mxGeometry x="340" y="396" width="30" height="35" as="geometry" />
        </mxCell>
        <mxCell id="t34tT2cTHQwuIw1zyMxt-7" value="" style="endArrow=none;dashed=1;html=1;dashPattern=1 3;strokeWidth=2;rounded=0;entryX=0.5;entryY=1;entryDx=0;entryDy=0;entryPerimeter=0;exitX=0.5;exitY=0;exitDx=0;exitDy=0;exitPerimeter=0;" parent="1" source="t34tT2cTHQwuIw1zyMxt-6" edge="1">
          <mxGeometry width="50" height="50" relative="1" as="geometry">
            <mxPoint x="360" y="390" as="sourcePoint" />
            <mxPoint x="354" y="378" as="targetPoint" />
          </mxGeometry>
        </mxCell>
        <mxCell id="t34tT2cTHQwuIw1zyMxt-8" value="" style="endArrow=classic;html=1;rounded=0;entryX=0.25;entryY=1;entryDx=0;entryDy=0;entryPerimeter=0;exitX=1;exitY=0.25;exitDx=0;exitDy=0;" parent="1" source="vskYOqWkcnwVmKQwBKcq-10" target="vskYOqWkcnwVmKQwBKcq-24" edge="1">
          <mxGeometry relative="1" as="geometry">
            <mxPoint x="460" y="480" as="sourcePoint" />
            <mxPoint x="470" y="380" as="targetPoint" />
            <Array as="points">
              <mxPoint x="575" y="470" />
            </Array>
          </mxGeometry>
        </mxCell>
        <mxCell id="t34tT2cTHQwuIw1zyMxt-9" value="Location&amp;nbsp;" style="edgeLabel;resizable=0;html=1;;align=center;verticalAlign=middle;" parent="t34tT2cTHQwuIw1zyMxt-8" connectable="0" vertex="1">
          <mxGeometry relative="1" as="geometry" />
        </mxCell>
        <mxCell id="t34tT2cTHQwuIw1zyMxt-10" value="" style="endArrow=classic;html=1;rounded=0;exitX=0.047;exitY=0.127;exitDx=0;exitDy=0;exitPerimeter=0;entryX=1;entryY=0.75;entryDx=0;entryDy=0;" parent="1" edge="1">
          <mxGeometry relative="1" as="geometry">
            <mxPoint x="562.8199999999999" y="335.62" as="sourcePoint" />
            <mxPoint x="460" y="302.5" as="targetPoint" />
            <Array as="points">
              <mxPoint x="490" y="336" />
              <mxPoint x="490" y="303" />
            </Array>
          </mxGeometry>
        </mxCell>
        <mxCell id="t34tT2cTHQwuIw1zyMxt-11" value="Location" style="edgeLabel;resizable=0;html=1;;align=center;verticalAlign=middle;" parent="t34tT2cTHQwuIw1zyMxt-10" connectable="0" vertex="1">
          <mxGeometry relative="1" as="geometry" />
        </mxCell>
        <mxCell id="t34tT2cTHQwuIw1zyMxt-12" value="" style="endArrow=classic;html=1;rounded=0;entryX=-0.03;entryY=0.64;entryDx=0;entryDy=0;entryPerimeter=0;" parent="1" target="vskYOqWkcnwVmKQwBKcq-10" edge="1">
          <mxGeometry width="50" height="50" relative="1" as="geometry">
            <mxPoint x="300" y="490" as="sourcePoint" />
            <mxPoint x="450" y="350" as="targetPoint" />
          </mxGeometry>
        </mxCell>
        <mxCell id="t34tT2cTHQwuIw1zyMxt-15" value="" style="endArrow=classic;html=1;rounded=0;entryX=0.62;entryY=-0.007;entryDx=0;entryDy=0;entryPerimeter=0;exitX=1;exitY=0.25;exitDx=0;exitDy=0;exitPerimeter=0;" parent="1" source="vskYOqWkcnwVmKQwBKcq-11" edge="1">
          <mxGeometry relative="1" as="geometry">
            <mxPoint x="362" y="166" as="sourcePoint" />
            <mxPoint x="598.2" y="319.58000000000004" as="targetPoint" />
            <Array as="points">
              <mxPoint x="601" y="170" />
            </Array>
          </mxGeometry>
        </mxCell>
        <mxCell id="t34tT2cTHQwuIw1zyMxt-16" value="Log&lt;div&gt;&lt;br&gt;&lt;/div&gt;" style="edgeLabel;resizable=0;html=1;;align=center;verticalAlign=middle;" parent="t34tT2cTHQwuIw1zyMxt-15" connectable="0" vertex="1">
          <mxGeometry relative="1" as="geometry" />
        </mxCell>
        <mxCell id="t34tT2cTHQwuIw1zyMxt-17" value="" style="endArrow=classic;startArrow=classic;html=1;rounded=0;entryX=0.5;entryY=1;entryDx=0;entryDy=0;" parent="1" target="vskYOqWkcnwVmKQwBKcq-8" edge="1">
          <mxGeometry width="50" height="50" relative="1" as="geometry">
            <mxPoint x="400" y="330" as="sourcePoint" />
            <mxPoint x="450" y="350" as="targetPoint" />
          </mxGeometry>
        </mxCell>
        <mxCell id="bSTxt-o9gCNaq9EwvQ-2-1" value="Messege&lt;div&gt;Queue&lt;/div&gt;" style="text;html=1;align=center;verticalAlign=middle;whiteSpace=wrap;rounded=0;" vertex="1" parent="1">
          <mxGeometry x="530" y="383" width="60" height="30" as="geometry" />
        </mxCell>
      </root>
    </mxGraphModel>
  </diagram>
</mxfile>
